<svg xmlns="http://www.w3.org/2000/svg" viewBox="0 0 300 64.617" fill="#00a0e4">
<path d="M68.872 1H1.002v62.617L68.872 1" fill="#44c8f5"/>
<path d="M34.931 1H1v31.323L34.931 1" fill="#231f20"/>
<path d="M93.255 30.689s-1.017 11.505-10.82 11.505h-5.547l4.886-19.105h5.034c1.801.011 7.015.478 6.448 7.6zm-.794-16.081l-4.048-.013H68.827l-8.836 35.408h19.448l7.694.011c10.833 0 21.494-8.064 21.494-20.416 0-14.533-16.166-14.99-16.166-14.99"/>
<path d="M127.897 35.121h-3.59l5.788-10.219 1.877 10.219h-4.076zm-2.227-20.533l-20.131 35.42h10.353l3.342-5.904h14.372l1.071 5.904h15.28l-6.495-35.42h-17.792"/>
<path id="I" d="M163.646 14.591l-8.86 35.422h15.65l8.852-35.422h-15.646"/>
<path d="M228.136 14.591h-16.039l-13.426 11.587 2.93-11.587h-15.003l-8.836 35.422h14.956l3.055-12.228 7.997 12.228h18.103l-13.408-18.551 19.671-16.871"/>
<use href="#I" x="71.486"/>
<path d="M288.959 14.564l-5.221 20.858-6.955-20.858h-17.407l-8.843 35.427h10.824l5.272-21.041 6.977 21.041h17.333L299 14.586h-10.835"/>
</svg>