<svg xmlns="http://www.w3.org/2000/svg" viewBox="26 280 601 92" fill="#E60012">
<path d="M67.7,326.3L67.7,326.3c0.1,5.1,4.1,9.1,9.2,9.1h21v15.9H63.5c-10.1,0-18.3-8.2-18.3-18.3v-14.2c0-10.1,8.2-18.3,18.3-18.3l0,0h43.3c5.1,0,9.2-4.1,9.2-9.3c0-5.1-4.1-9.2-9.2-9.2H63.5c-20.3,0-36.8,16.5-36.8,36.8V333c0,20.3,16.5,36.8,36.8,36.8h52.9v-44.7c0-4.5-3.7-8.2-8.2-8.2H76.9c-5.1,0-9.2,4.1-9.2,9.2C67.7,326.2,67.7,326.3,67.7,326.3"/>
<path id="O" d="M156.8,298.9c-6.9,0-12.4,5.6-12.4,12.4v29.2c0,6.9,5.6,12.4,12.4,12.4h35.8c6.9,0,12.4-5.6,12.4-12.4v-29.2c0-6.9-5.6-12.4-12.4-12.4C192.6,298.9,156.8,298.9,156.8,298.9z M192.6,369.9h-35.8c-16.3,0-29.4-13.2-29.4-29.4v-29.2c0-16.3,13.2-29.4,29.4-29.4h35.8c16.3,0,29.4,13.2,29.4,29.4v29.2C222,356.7,208.8,369.9,192.6,369.9"/>
<use href="#O" x="104.7"/>
<path d="M388.5,281.8l-48.9,0.1V370h0.6l0,0h48.2c20.4,0,36.9-16.6,37-37v-14.2C425.5,298.4,408.9,281.8,388.5,281.8 M406.9,333c0,10.2-8.2,18.4-18.4,18.4h-30.2v-51h30.2c10.2,0,18.4,8.2,18.4,18.4V333"/>
<path id="I" d="M448,281.4h-0.4c-4.8,0-8.6,3.8-8.6,8.6v71.5c0,4.8,3.8,8.6,8.6,8.6h0.4c4.8,0,8.6-3.8,8.6-8.6V290C456.7,285.3,452.7,281.4,448,281.4"/>
<path d="M482.5,325.5c-3.5-3.4-9.1-3.2-12.4,0.3l-28.5,29.6c-3.4,3.5-3.2,9.1,0.3,12.4c1.7,1.6,4,2.5,6.3,2.4c0.3,0,0.7,0,1-0.1c2-0.2,3.8-1.2,5.2-2.7l28.5-29.6C486.2,334.4,486.1,328.8,482.5,325.5"/>
<path d="M489,325.5c3.5-3.4,9.1-3.2,12.4,0.3l28.5,29.6c3.4,3.5,3.2,9.1-0.3,12.4c-1.7,1.6-4,2.5-6.3,2.4c-0.3,0-0.7,0-1-0.1c-2-0.2-3.8-1.2-5.2-2.7l-28.5-29.6C485.3,334.4,485.5,328.8,489,325.5"/>
<use href="#I" x="75.8"/>
<path d="M617.3,334.8h-52.6c-5.2,0-9.3-4.1-9.3-9.3s4.1-9.3,9.3-9.3l0,0h52.6c5.2,0,9.3,4.1,9.3,9.3C626.7,330.6,622.5,334.8,617.3,334.8"/>
<path d="M617.3,370.6h-32.8c-20.5,0-37.1-16.7-37.1-37.1v-14.3c0-20.5,16.7-37.1,37.1-37.1h32.8c5.2,0.2,9.2,4.5,9.1,9.6c-0.2,4.9-4.1,8.9-9.1,9.1h-32.8c-10.2,0-18.5,8.3-18.5,18.5l0,0v14.3c0,10.2,8.3,18.5,18.5,18.5l0,0h32.8c5.2,0.2,9.2,4.5,9.1,9.6C626.3,366.4,622.3,370.4,617.3,370.6"/>
</svg>