<svg xmlns="http://www.w3.org/2000/svg" viewBox="0 0 348 50" fill="#3E3A39">
<path id="H" d="M34.805 1.171v18.867h25.238V1.171h12.5v47.175h-12.5V27.579h-25.263v20.767h-12.497V1.171"/>
<path id="I" d="M82.458 1.171h12.485v47.175h-12.497"/>
<path d="M150.151 1.171v8.022h-19.112v39.153h-12.511V9.193H99.416V1.171"/>
<path d="M168.987 9.192l-8.693 21.451h17.402l-8.709-21.451zm29.721 39.151H184.79l-4.08-10.136h-23.425l-4.071 10.136h-13.918l22.043-47.174h15.318l22.051 47.174"/>
<path d="M198.276 35.292c-1.114-3.178-1.69-6.537-1.69-10.072 0-4.958.866-9.749 3.246-13.748 2.446-4.095 6.207-7.273 10.726-8.95C214.876.89 219.533 0 224.411 0c5.618 0 10.907 1.217 15.785 3.315 4.504 1.941 7.903 6 8.906 10.909.219.96.341 1.981.434 2.994H236.42c-.039-1.275-.242-2.507-.669-3.627-1.001-2.609-3.166-4.649-5.857-5.454-1.738-.543-3.596-.834-5.483-.834-2.166 0-4.257.376-6.195 1.067-3.195 1.123-5.681 3.726-6.807 6.931-1.099 3.091-1.729 6.441-1.729 9.919 0 2.893.472 5.666 1.204 8.289.952 3.435 3.527 6.196 6.828 7.459a18.92 18.92 0 0 0 6.699 1.238 18.66 18.66 0 0 0 5.776-.896c2.443-.786 4.441-2.584 5.46-4.897.692-1.55 1.045-3.245 1.045-5.061h13.154c-.084 1.532-.29 3.052-.627 4.471-1.12 4.673-4.406 8.588-8.736 10.404-4.946 2.068-10.371 3.283-16.072 3.283-4.412 0-8.688-.688-12.67-1.952-6.097-1.911-11.377-6.303-13.465-12.266"/>
<use href="#H" x="233.928"/>
<use href="#I" x="233.928"/>
</svg>