<svg xmlns="http://www.w3.org/2000/svg" xmlns:xlink="http://www.w3.org/1999/xlink" viewBox="0 0 348 50">
<polygon fill="#3E3A39" points="268.732,1.171 268.732,20.038 293.995,20.038 293.995,1.171 306.488,1.171 306.488,48.346 293.995,48.346 293.995,27.579 268.732,27.579 268.732,48.346 256.235,48.346 256.235,1.171 "/>
<polygon fill="#3E3A39" points="150.151,1.171 150.151,9.193 131.039,9.193 131.039,48.346 118.528,48.346 118.528,9.193 99.416,9.193 99.416,1.171 "/>
<path fill="#3E3A39" d="M168.987,9.192l-8.693,21.451h17.402L168.987,9.192z M198.708,48.343h-13.918l-4.08-10.136h-23.425l-4.071,10.136h-13.918l22.043-47.174h15.318L198.708,48.343z"/>
<rect x="316.386" y="1.171" fill="#3E3A39" width="12.497" height="47.175"/>
<polygon fill="#3E3A39" points="34.805,1.171 34.805,20.038 60.043,20.038 60.043,1.171 72.543,1.171 72.543,48.346 60.043,48.346 60.043,27.579 34.805,27.579 34.805,48.346 22.32,48.346 22.32,1.171 "/>
<rect x="82.458" y="1.171" fill="#3E3A39" width="12.485" height="47.175"/>
<path fill="#3E3A39" d="M198.276,35.292c-1.114-3.178-1.69-6.537-1.69-10.072c0-4.958,0.866-9.749,3.246-13.748c2.446-4.095,6.207-7.273,10.726-8.95C214.876,0.89,219.533,0,224.411,0c5.618,0,10.907,1.217,15.785,3.315c4.504,1.941,7.903,6,8.906,10.909c0.219,0.96,0.341,1.981,0.434,2.994H236.42c-0.039-1.275-0.242-2.507-0.669-3.627c-1.001-2.609-3.166-4.649-5.857-5.454c-1.738-0.543-3.596-0.834-5.483-0.834c-2.166,0-4.257,0.376-6.195,1.067c-3.195,1.123-5.681,3.726-6.807,6.931c-1.099,3.091-1.729,6.441-1.729,9.919c0,2.893,0.472,5.666,1.204,8.289c0.952,3.435,3.527,6.196,6.828,7.459c2.081,0.789,4.352,1.238,6.699,1.238c2.021,0,3.957-0.306,5.776-0.896c2.443-0.786,4.441-2.584,5.46-4.897c0.692-1.55,1.045-3.245,1.045-5.061h13.154c-0.084,1.532-0.29,3.052-0.627,4.471c-1.12,4.673-4.406,8.588-8.736,10.404c-4.946,2.068-10.371,3.283-16.072,3.283c-4.412,0-8.688-0.688-12.67-1.952C205.644,45.647,200.364,41.255,198.276,35.292"/>
</svg>
