<svg xmlns="http://www.w3.org/2000/svg" viewBox="0 0 74 28" fill="#11376b">
<path d="M4.609 3.062h-4v23.007h4V3.062"/>
<path d="M4.609 3.062a2 2 0 0 1-1.996 2 2 2 0 0 1-2.003-2c0-1.105.898-2 2.003-2a2 2 0 0 1 1.996 2m54.094 5.164H54.7V26.03h4.003V8.226"/>
<path d="M58.703 8.226c0 1.101-.898 2-2 2a2 2 0 0 1-2.003-2c0-1.105.894-2.003 2.003-2.003 1.101 0 2 .898 2 2.003m-47.824 12.66c-5.628 0-10.21-4.578-10.21-10.21 0-1.07.875-1.941 1.945-1.941s1.941.871 1.941 1.941c0 3.488 2.835 6.328 6.324 6.328 1.746 0 3.371-.695 4.574-1.96.742-.773 1.968-.804 2.746-.062a1.94 1.94 0 0 1 .066 2.742 10.12 10.12 0 0 1-7.386 3.164m35.82 3.202c0-1.105.898-2 2.004-2a2 2 0 1 1 0 4c-1.105 0-2.004-.895-2.004-2m-25.172-.02h4.004V1.062h-4.004V24.07"/>
<path d="M21.527 24.07c0-1.105.895-2.004 2.004-2.004 1.102 0 2 .898 2 2.004a2 2 0 0 1-2 2c-1.109 0-2.004-.898-2.004-2m2-5.676c-1.07 0-1.941-.871-1.941-1.941a6.33 6.33 0 0 0-6.324-6.324 6.28 6.28 0 0 0-4.578 1.957 1.94 1.94 0 0 1-2.742.066c-.777-.742-.805-1.969-.066-2.746a10.12 10.12 0 0 1 7.387-3.16c5.629 0 10.211 4.578 10.211 10.207 0 1.07-.871 1.941-1.945 1.941m35.182 4.957l-2.965-2.07L69.625 6.765a1.84 1.84 0 0 1 1.328-.574h.031a1.83 1.83 0 0 1 1.328 3.074L58.711 23.351"/>
<path d="M73.261 26.031h-4.066l-6.484-11.91h4.066l6.484 11.91m-31.765-.492l-5.07-16.82C36 7.281 34.641 6.23 33.031 6.23c-1.953 0-3.535 1.539-3.535 3.441V26.03H33.5V12.887l3.211 10.633a3.55 3.55 0 0 0 3.391 2.492c1.594 0 2.938-1.047 3.391-2.492l3.211-10.633V24.09h4V9.672c0-1.902-1.582-3.441-3.531-3.441-1.609 0-2.969 1.051-3.398 2.488l-5.07 16.82"/>
</svg>