<svg xmlns="http://www.w3.org/2000/svg" viewBox="0 0 70 17.5">
<path d="M25.9 17.194v-4.2h-4.8v4.2h-1.5v-9.4h1.5v4h4.8v-4h1.4v9.4h-1.4zm2.7-3.5c0-2.2 1.3-3.5 3.3-3.5s3.3 1.4 3.3 3.5c0 2.2-1.3 3.5-3.3 3.5s-3.3-1.4-3.3-3.5zm5 0c0-1.5-.7-2.4-1.8-2.4s-1.8.9-1.8 2.4.7 2.4 1.8 2.4c1.2-.1 1.8-1 1.8-2.4zm2.6-3.4h1.3v1.2h0c.3-.8 1-1.3 1.9-1.3 1 0 1.6.5 1.9 1.3h0a2.33 2.33 0 0 1 2.1-1.3c1.4 0 2.2.9 2.2 2.3v4.7h-1.4v-4.3c0-.9-.5-1.4-1.3-1.4s-1.4.6-1.4 1.5v4.2h-1.2v-4.4c0-.8-.5-1.3-1.3-1.3s-1.4.6-1.4 1.5v4.2h-1.4v-6.9zm16.8 4.8c-.2 1.2-1.4 2.1-3 2.1-2 0-3.2-1.3-3.2-3.5 0-2.1 1.2-3.5 3.2-3.5 1.9 0 3.1 1.3 3.1 3.4v.5h-4.8v.1c0 1.2.7 1.9 1.8 1.9.8 0 1.4-.4 1.6-1H53zm-4.7-2.1h3.4c0-1-.7-1.7-1.7-1.7-.9 0-1.6.7-1.7 1.7zm6.1 4.2v-9.4h1.5v4.5h.1l3.9-4.5h1.7l-3.7 4.2 4 5.2h-1.8l-3.3-4.2-1 1.1v3.1h-1.4zm8.2-8.7c0-.4.4-.8.8-.8.5 0 .8.4.8.8s-.4.8-.8.8c-.5 0-.8-.3-.8-.8zm.1 1.8h1.4v6.9h-1.4v-6.9zm4.7-1.7v1.6h1.3v1.1h-1.3v3.8c0 .6.3.9.8.9h.5v1.1c-.2 0-.5.1-.8.1-1.4 0-1.9-.5-1.9-1.9v-3.9h-1v-1.2h1v-1.6h1.4 0z"/>
<path d="M18.225 7.184l-1.698-1.349h0V2.756c0-.211-.084-.27-.226-.27h-1.556c-.167 0-.276.034-.276.27V4.19h0L9.692.387C9.508.243 9.391.201 9.266.201s-.243.042-.427.186L.306 7.175c-.301.236-.218.582.117.582h1.581v8.652c0 .557.226.784.753.784h13.025c.527 0 .753-.219.753-.784V7.766h1.581c.335 0 .418-.346.117-.582h-.008zm-3.028 8.02c0 .388-.201.658-.602.658H3.928c-.402 0-.602-.27-.602-.658V7.116c0-.472.201-.767.435-.953l5.128-4.082c.134-.11.251-.152.368-.152s.226.051.368.152l5.128 4.082c.234.186.435.481.435.953v8.087h.008z" fill="#f79a1d"/>
<path d="M14.762 6.164L9.634 2.082c-.134-.11-.259-.152-.368-.152s-.226.051-.368.152L3.769 6.164c-.234.186-.435.481-.435.953v8.087c0 .388.201.658.602.658h10.666c.402 0 .602-.27.602-.658V7.116c0-.472-.201-.767-.435-.953h-.008zm-.895 7.826c0 .363-.201.531-.502.531H5.166c-.301 0-.502-.169-.502-.531V7.673c0-.346.084-.548.326-.751L8.956 3.76c.092-.084.209-.118.301-.118s.201.042.301.118l3.965 3.162c.243.194.326.396.326.751v6.316h.017z" fill="#faac27"/>
<path d="M13.54 6.931L9.567 3.769c-.1-.076-.209-.118-.301-.118s-.201.042-.301.118L4.999 6.931c-.243.194-.326.396-.326.751v6.316c0 .363.201.531.502.531h8.198c.293 0 .502-.169.502-.531V7.682c0-.346-.084-.548-.326-.751h-.008zm-1.004 5.853c0 .287-.159.405-.376.405H6.379c-.217 0-.376-.11-.376-.405V8.238c0-.202 0-.363.217-.54l2.811-2.235c.075-.059.151-.093.243-.093s.159.034.243.093l2.811 2.235c.217.177.217.337.217.54v4.545h-.008z" fill="#fcbf47"/>
<path d="M12.311 7.698L9.5 5.464c-.075-.059-.159-.093-.243-.093s-.159.034-.243.093L6.204 7.698c-.218.177-.218.337-.218.54v4.545c0 .287.159.405.377.405h5.781c.217 0 .376-.11.376-.405V8.238c0-.202 0-.363-.217-.54h.008zm-1.113 3.871c0 .219-.109.27-.268.27H7.584c-.159 0-.268-.051-.268-.27V8.803a.52.52 0 0 1 .192-.405c.067-.059 1.523-1.206 1.573-1.248a.33.33 0 0 1 .176-.068.33.33 0 0 1 .176.068l1.573 1.248c.125.101.192.261.192.405v2.766z" fill="#ffd366"/>
<path d="M9.266 11.839h1.673c.159 0 .268-.051.268-.27V8.803a.52.52 0 0 0-.192-.405c-.067-.059-1.522-1.206-1.573-1.248a.33.33 0 0 0-.176-.068.33.33 0 0 0-.176.068L7.517 8.398c-.125.101-.192.261-.192.405v2.766c0 .219.109.27.268.27h1.673 0z" fill="#fff182"/>
</svg>