<svg xmlns="http://www.w3.org/2000/svg" viewBox="0 0 670 122.791">
<path d="M70.328 81.199l23.436-40.595L70.32 0 46.884 40.598zl23.436 40.597h46.881l-23.446-40.597zH23.442L0 121.796h46.886" fill="#e31f26"/>
<path d="M203.813 40.597l-7.85 15.928-7.858-15.928h-20.896l-6.268 45.376h20.275l1.812-18.951 12.935 18.951 12.928-18.951 1.815 18.951h20.275l-6.27-45.376"/>
<path id="I" d="M237.316 40.597h21.705v45.376h-21.705"/>
<path d="M311.38 40.597h-46.077v12.392h12.599v32.994h20.883V52.989h12.595"/>
<path id="S" d="M366.433 58.663V45.587c-7.508-3.635-16.429-5.926-24.923-5.926-15.963 0-24.664 5.377-24.664 14.3 0 7.696 4.83 10.645 13.005 13.732 9.46 3.575 15.481 1.788 15.481 4.699 0 1.132-.349 1.98-4.012 1.98-8.533 0-16.733-3.39-22.654-6.775v13.548c7.559 3.447 16.874 5.645 24.474 5.645 10.258 0 24.758-2.393 24.758-14.486 0-8.421-7.267-12.803-17.113-15.052-7.382-1.685-12.33-1.151-12.33-3.857 0-1.356 1.92-1.883 5.161-1.883 6.987 0 16.822 3.297 22.817 7.151"/>
<path d="M402.556 86.791c14.106 0 28.062-5.714 28.062-18.838V40.598h-21.184v27.846c0 3.697-2.979 6.774-6.878 6.774s-6.882-3.077-6.882-6.774V40.598h-21.189v27.354c-.001 13.125 13.961 18.839 28.071 18.839"/>
<path d="M473.901 85.983c12.54 0 16.733-5.834 16.733-12.051 0-5.909-3.383-9.774-8.225-11.644 3.622-1.79 5.641-5.394 5.641-9.382 0-7.331-6.589-12.31-13.594-12.31h-36.311v45.386h35.756m-8.483-35.747c2.427 0 3.76 1.724 3.76 3.605 0 2.112-1.714 3.384-3.686 3.384h-5.361v-6.989zm.074 24.318h-5.361v-6.905h5.581c1.79 0 3.603 1.282 3.603 3.438-.001 1.897-1.533 3.467-3.823 3.467"/>
<use href="#I" x="260.108"/>
<use href="#S" x="209.629"/>
<path d="M618.735 40.597v15.995h-12.326V40.597h-21.583v45.386h21.583V69.787h12.326v16.196h21.583V40.597"/>
<use href="#I" x="410.987"/>
<path d="M182.412 94.101v9.691h-8.886v-9.691h-12.585v27.695h12.585v-9.951h8.886v9.951h12.582V94.101"/>
<path id="e" d="M224.529 121.796v-5.922h-12.341v-5.86h10.565v-5.715h-10.565v-4.315h12.341v-5.878h-24.198v27.69"/>
<path d="M236.697 94.101l-10.144 27.697h11.838l.933-3.268h9.192l.938 3.268h11.837l-10.147-27.697zm4.158 19.059l3.056-10.682 3.067 10.682"/>
<path d="M282.58 121.796l10.121-27.695h-11.716l-5.958 17.512-5.935-17.512h-11.713l10.141 27.695"/>
<path d="M311.066 104.596l-5.868-10.495h-11.585l11.204 17.932v9.763h12.639v-9.974l11.066-17.721h-11.583"/>
<path id="i" d="M346.406 94.069h12.474v27.728h-12.474"/>
<path d="M400.968 121.796V94.069h-12.676v12.824l-10.17-12.824h-13.905v27.727h12.675v-13.503l10.423 13.503"/>
<path d="M423.284 121.798c12.278 0 18.236-5.784 18.236-13.888 0-9.087-7.532-13.842-17.617-13.842h-17.597v27.729h16.978m-1.423-7.783h-2.881v-13.163h2.433c4.243 0 6.588 2.639 6.588 6.886 0 3.261-2.79 6.277-6.14 6.277"/>
<path d="M462.226 122.612c12.17 0 16.772-4.766 16.772-11.908V94.101h-12.044v17.312c0 2.167-2.479 3.987-4.729 3.987s-4.725-1.82-4.725-3.987V94.101h-12.042v16.603c.001 7.142 4.599 11.908 16.768 11.908"/>
<path id="s" d="M513.735 102.651V95.68c-3.378-1.711-8.315-2.852-14.972-2.852-13.301 0-15.062 5.688-15.062 8.614 0 4.894 2.992 7.15 8.014 8.925 5.872 2.071 10.789 1.381 10.789 3.859 0 .716-.947 1.438-3.439 1.438-5.16 0-10.637-1.994-14.221-4.148v7.687c4.569 2.193 10.21 3.588 14.799 3.588 10.234 0 15.806-4.11 15.806-9.542 0-5.361-4.225-7.545-11.183-9.237-4.463-1.08-7.4-1.08-7.4-2.801 0-.948 1.253-1.67 3.683-1.67 4.228 0 9.073 1.268 13.186 3.11"/>
<path d="M518.701 100.259h8.067v21.537h12.634v-21.537h8.072v-6.158h-28.773"/>
<path d="M552.357 94.1v27.697h13.391v-8.947l8.304 8.953h14.863l-11.069-10.89c4.811-.188 8.659-3.388 8.659-8.175 0-5.595-4.319-8.639-9.493-8.639h-24.655m17.66 12.3h-4.269v-7.005h4.527c1.623 0 3.413 1.245 3.413 3.637 0 2.103-1.671 3.368-3.671 3.368"/>
<use href="#i" x="245.158"/>
<use href="#e" x="409.075"/>
<use href="#s" x="154.547"/>
</svg>