<svg xmlns="http://www.w3.org/2000/svg" viewBox="0 0 136 22" fill="#bf0000">
<path d="M19.7 0.2v4.4H7.4c-1.2-.1-2.2.8-2.3 2-.1 1.2.8 2.2 2 2.3h.3c2.7 0 5.3-.1 8 .1 3.2.2 5.7 3 5.7 6.2 0 3.8-2.2 6.4-5.6 6.8-.4.1-.9.1-1.3.1H1.4v-4.4h12.5c1.2 0 2.3-.9 2.4-2.1.1-1.1-.6-2.1-1.7-2.3-.3-.1-.5-.1-.8-.1h-6.7c-3.6.2-6.7-2.5-6.9-6.1s2.5-6.7 6.1-6.9c4.2-.1 8.3-.1 12.5-.1l.9.1z"/>
<path d="M21.7 22.1 24 17c2.4-5.4 4.8-10.9 7.2-16.3.1-.4.5-.6.8-.6h3.8c.3-.1.6.1.8.4l9.3 21c0 .1.1.2.1.4h-4.5c-.2 0-.3-.3-.4-.5-.6-1.4-1.2-2.8-1.8-4.1-.1-.3-.4-.6-.8-.5h-9.2c-.4 0-.7.2-.8.5-.6 1.4-1.2 2.7-1.8 4.1-.1.4-.4.6-.8.6-1.3.1-2.7.1-4.2.1zM37 13.5l-3.2-7.3-3.1 7.3H37z"/>
<path d="M65.7 0.2l-9 10.4 9.9 11.5H61c-.2 0-.5-.3-.7-.5-2.5-3-5-5.9-7.6-8.9-.1-.2-.3-.3-.6-.6v10h-4.6V0.3h4.6v8.4l.2.1c.1-.2.2-.3.3-.5 2.2-2.5 4.5-5 6.7-7.6.3-.4.8-.6 1.3-.6 1.6.1 3.2.1 5.1.1z"/>
<path d="M68.5 0.2h4.5v14c0 2.3 1.2 3.5 3.5 3.5h4.7c1.7.2 3.2-1.1 3.4-2.8V0.3h4.6v14c0 4.2-3.3 7.6-7.5 7.7-2.1.1-4.1 0-6.2 0-4.4-.2-7.1-4.3-7.1-7.4-.1-4.7 0-9.3 0-14 0-.1.1-.2.1-.4z"/>
<path d="M97.9 9.5h7.4c1.4 0 2.4-1.1 2.4-2.5 0-1.3-1.1-2.4-2.4-2.4h-7.9c-.6 0-.8.1-.8.8V22H92V0.2h13.2c3.8-.2 7 2.8 7.2 6.6.1 3.3-2 6.2-5.2 7l-.2.1 5.3 7c.2-.3.3-.6.4-.8l8.4-19.2c.1-.5.6-.8 1.1-.8 1.1.1 2.3 0 3.5 0 .4-.1.8.2.9.6 2.8 6.4 5.6 12.9 8.5 19.3.3.7.6 1.3.9 2h-4.5c-.1 0-.4-.3-.4-.5l-1.8-4.2c-.1-.3-.4-.5-.7-.5h-9.2c-.4 0-.7.2-.8.5l-1.8 4.2c-.1.3-.4.6-.8.5h-7.9c-.3 0-.6-.1-.8-.3l-9.3-12s0-.1-.1-.2zm29.3 3c-1.1-2.4-2.1-4.8-3.2-7.3-1.1 2.5-2.1 4.9-3.1 7.3h6.3z"/>
</svg>