<svg xmlns="http://www.w3.org/2000/svg" xmlns:xlink="http://www.w3.org/1999/xlink" viewBox="0 0 36.22 8.6">
<defs>
  <clipPath id="clip">
    <path d="m 756.22266,509.80469 c -2.70313,2.02343 -4.37891,5.16015 -4.37891,9.32422 0,4.01953 1.49609,7.04296 4.01953,9.07031 2.63672,2.10156 6.30469,3.13281 10.35547,3.13281 3.98828,0 7.61719,-0.96094 10.21484,-3.02344 2.5625,-2.03125 4.16797,-5.08984 4.16797,-9.17968 0,-4.02344 -1.57031,-7.05079 -4.09375,-9.07813 -2.60156,-2.0625 -6.26562,-3.09766 -10.28906,-3.09766 -3.875,0 -7.40234,0.89454 -9.99609,2.85157 m 6.0625,13.10937 c -1.00782,-0.94922 -1.60157,-2.22656 -1.60157,-3.76953 0,-1.57812 0.59375,-2.85156 1.60157,-3.77344 1.01171,-0.94922 2.40625,-1.45703 3.95312,-1.45703 1.54297,0 2.94141,0.50781 3.94922,1.45703 0.98047,0.92188 1.57422,2.22657 1.57422,3.77344 0,1.57422 -0.625,2.91016 -1.63281,3.83203 -1.01172,0.89063 -2.375,1.39453 -3.89063,1.39453 -1.54687,0 -2.97266,-0.53515 -3.95312,-1.45703"/>
  </clipPath>
</defs>
  <g transform="matrix(1,0,0,0.99995826,-45.392575,-67.512488)">
    <path style="fill:#0f427a;stroke-width:0.352778" d="m 45.392575,69.603035 v -1.850704 h 7.871355 v 1.850704 h -2.538346 v 6.239757 h -2.794663 v -6.239757 z m 0,0"/>
    <path style="fill:#0f427a;stroke-width:0.352778" d="m 61.760915,75.842792 h -6.852984 v -8.090461 h 6.852984 v 1.850704 h -4.045921 v 1.25126 h 3.358279 v 1.850704 h -3.358279 v 1.276065 h 4.045921 z m 0,0"/>
    <path style="fill:#0f427a;stroke-width:0.352778" d="m 66.444865,73.391262 c 0.381717,0.429948 0.932932,0.686265 1.59577,0.686265 0.439592,0 0.844737,-0.02342 1.20027,-0.07304 0.428572,-0.04823 0.822692,-0.146075 1.201649,-0.23289 l -0.220486,2.047766 c -0.110243,0.01238 -3.519509,0.73587 -5.603103,-0.796509 -0.942576,-0.698662 -1.532378,-1.765265 -1.532378,-3.237012 0,-1.422135 0.589802,-2.501138 1.532378,-3.1874 1.054199,-0.773081 2.158009,-1.128614 5.603103,-0.796509 l 0.220486,2.04639 c -0.378957,-0.08544 -0.773077,-0.170878 -1.201649,-0.23289 -0.355533,-0.04823 -0.760678,-0.07304 -1.20027,-0.07304 -0.662838,0 -1.214053,0.257693 -1.59577,0.698666 -0.366557,0.403765 -0.562239,0.968759 -0.562239,1.557182 0,0.613227 0.195682,1.176846 0.562239,1.593011"/>
    <g clip-path="url(#clip)" transform="matrix(0.3527778,0,0,0.3527778,-193.77148,-111.3265)">
      <path style="fill:#f05010" d="m 751.84375,506.95312 v 24.37891 h 28.75781 v -24.37891 z m 0,0"/>
    </g>
    <path style="fill:#0f427a;stroke-width:0.352778" d="m 71.697949,73.318226 c 0.03168,-2.684417 1.929254,-3.861262 3.523643,-3.861262 0.658704,0 1.296734,0.214975 1.823146,0.570508 0.32108,0.07166 0.607712,0.213597 0.843357,0.417545 -0.498849,-1.204405 -1.688094,-2.042252 -3.023415,-2.042252 -2.107022,0 -3.402376,1.842438 -3.402376,3.40651 0,0.0014 0,0.0014 0,0.0028 0,0.556729 0.08268,1.056957 0.235645,1.506195"/>
    <path style="fill:#0f427a;stroke-width:0.352778" d="m 74.684157,75.885514 c -0.642165,-0.580154 -1.056954,-1.409736 -1.087272,-2.342667 -0.03447,-1.083138 0.45751,-2.05879 1.242991,-2.685796 0.08406,-0.137803 0.186034,-0.263204 0.305926,-0.372072 0.333484,-0.312815 0.785481,-0.487824 1.288464,-0.509873 -1.343586,-0.259069 -2.762966,0.338998 -3.48506,1.590255 -0.691773,1.197515 -0.545701,2.648593 0.253559,3.676608 0.436838,0.285253 0.93569,0.498849 1.481392,0.643545"/>
    <path style="fill:#0f427a;stroke-width:0.352778" d="m 76.778775,75.210272 c -0.837847,-0.449238 -1.402842,-1.208539 -1.630218,-2.061545 0,-0.0014 -0.0014,-0.0014 -0.0014,-0.0028 -0.358288,-0.334864 -0.566374,-0.785481 -0.566374,-1.329807 0,-0.0014 0,-0.0028 0,-0.0041 -0.405141,0.927421 -0.383092,2.028472 0.16123,2.972428 0.345888,0.596692 0.848871,1.044554 1.42627,1.322917 0.121267,0.0041 0.242534,0.0083 0.365181,0.0083 1.335321,0 2.557639,-0.305926 3.461632,-0.960494 -0.956359,0.555349 -2.169033,0.615985 -3.216342,0.05512"/>
    <path style="fill:#0f427a;stroke-width:0.352778" d="m 81.369021,70.318239 c 0.05788,1.160307 -0.497473,2.31648 -1.554427,2.971049 -0.8723,0.54157 -1.898936,0.627009 -2.801553,0.319705 -0.151582,0.03306 -0.310057,0.05099 -0.472666,0.05099 -0.260449,0 -0.509874,-0.0441 -0.737249,-0.124023 0.602202,0.790995 1.551668,1.303623 2.623784,1.303623 1.437295,0 2.659613,-0.920528 3.11161,-2.203482 0.0441,-0.260448 0.0689,-0.536056 0.0689,-0.825443 0,-0.551216 -0.08406,-1.047309 -0.2384,-1.492416"/>
    <path style="fill:#0f427a;stroke-width:0.352778" d="m 79.668522,69.699498 c 0.03447,1.095541 -0.468534,2.080839 -1.269174,2.706469 -0.09646,0.300412 -0.264583,0.559481 -0.486445,0.762053 -0.06064,0.05375 -0.126782,0.101974 -0.195683,0.147451 1.04593,-0.08268 2.035362,-0.661459 2.600357,-1.638487 0.483694,-0.837848 0.558105,-1.801097 0.283877,-2.655479 -0.135047,-0.14883 -0.281122,-0.286632 -0.438217,-0.413413 -0.304546,-0.241155 -0.65181,-0.442352 -1.029395,-0.603582 0.319705,0.489204 0.515387,1.067982 0.53468,1.694988"/>
    <path style="fill:#0f427a;stroke-width:0.352778" d="m 76.486633,68.032073 c 1.080382,0.578774 1.706008,1.672939 1.739081,2.816708 0.166744,0.274232 0.263208,0.600827 0.263208,0.967384 0.600823,-0.996322 0.657324,-2.279276 0.03447,-3.356899 -0.186034,-0.322464 -0.418924,-0.600827 -0.683507,-0.833717 -0.417544,-0.07304 -0.855761,-0.110243 -1.306378,-0.110243 -0.498849,0 -0.981164,0.04272 -1.437295,0.129537 0.472666,0.02342 0.946711,0.14883 1.390442,0.38723"/>
  </g>
</svg>
