<svg xmlns="http://www.w3.org/2000/svg" viewBox="0 0 36.22 8.6" fill="#0f427a">
<path d="M0 2.09v-1.851h7.871v1.851h-2.538v6.24h-2.795v-6.24"/>
<path d="M16.369 8.331h-6.853v-8.09h6.853v1.851h-4.046v1.251h3.358v1.851h-3.358v1.276h4.046"/>
<path d="M21.053 5.879c.382.43.933.686 1.596.686a8.81 8.81 0 0 0 1.2-.073c.429-.048.823-.146 1.202-.233l-.22 2.048c-.11.012-3.52.736-5.603-.797-.943-.699-1.532-1.765-1.532-3.237 0-1.422.59-2.501 1.532-3.187 1.054-.773 2.158-1.129 5.603-.797l.22 2.046-1.202-.233a9.04 9.04 0 0 0-1.2-.073c-.663 0-1.214.258-1.596.699-.367.404-.562.969-.562 1.557 0 .613.196 1.177.562 1.593"/>
<path d="M27.615 1.009c-.954.714-1.545 1.82-1.545 3.289 0 1.418.528 2.485 1.418 3.2.93.742 2.224 1.105 3.653 1.105 1.407 0 2.687-.339 3.604-1.066.904-.716 1.47-1.796 1.47-3.239 0-1.419-.554-2.487-1.444-3.203C33.853.368 32.56.003 31.141.003c-1.367 0-2.611.316-3.526 1.006m2.139 4.625c-.356-.335-.565-.786-.565-1.33 0-.557.21-1.006.565-1.331.357-.335.849-.514 1.395-.514s1.038.179 1.393.514a1.79 1.79 0 0 1 .555 1.331 1.8 1.8 0 0 1-.576 1.352c-.357.314-.838.492-1.373.492-.546 0-1.049-.189-1.395-.514" fill="#f05010"/>
<path d="M26.306 5.806c.032-2.684 1.929-3.861 3.524-3.861.659 0 1.297.215 1.823.571.321.072.608.214.843.418-.499-1.204-1.688-2.042-3.023-2.042-2.107 0-3.402 1.842-3.402 3.407 0 .56.083 1.06.236 1.509"/>
<path d="M29.291 8.372a3.29 3.29 0 0 1-1.087-2.343c-.034-1.083.458-2.059 1.243-2.686a1.69 1.69 0 0 1 .306-.372c.333-.313.785-.488 1.288-.51-1.344-.259-2.763.339-3.485 1.59a3.3 3.3 0 0 0 .254 3.677 5.1 5.1 0 0 0 1.481.644"/>
<path d="M31.094 0.52c1.08.579 1.706 1.673 1.739 2.817a1.84 1.84 0 0 1 .263.967c.601-.996.657-2.279.034-3.357a3.32 3.32 0 0 0-.684-.834c-.418-.073-.856-.11-1.306-.11a7.68 7.68 0 0 0-1.437.13 3.27 3.27 0 0 1 1.39.387"/>
<path d="M31.386 7.696a3.29 3.29 0 0 1-1.63-2.062c-.36-.338-.568-.788-.568-1.333a3.29 3.29 0 0 0 .161 2.968 3.3 3.3 0 0 0 1.426 1.323l.365.008c1.335 0 2.558-.306 3.462-.96-.956.555-2.169.616-3.216.055"/>
<path d="M34.277 2.187c.034 1.096-.469 2.081-1.269 2.706a1.75 1.75 0 0 1-.486.762 1.73 1.73 0 0 1-.196.147c1.046-.083 2.035-.661 2.6-1.638a3.29 3.29 0 0 0 .284-2.655 3.8 3.8 0 0 0-.438-.413 4.5 4.5 0 0 0-1.029-.604 3.27 3.27 0 0 1 .535 1.695"/>
<path d="M35.976 2.805c.058 1.16-.497 2.316-1.554 2.971-.872.542-1.899.627-2.802.32a2.22 2.22 0 0 1-1.21-.073 3.29 3.29 0 0 0 2.624 1.304 3.3 3.3 0 0 0 3.112-2.203 4.94 4.94 0 0 0 .069-.825c0-.551-.084-1.047-.238-1.492"/>
</svg>